<svg xmlns="http://www.w3.org/2000/svg" xmlns:xlink="http://www.w3.org/1999/xlink" width="500" zoomAndPan="magnify" viewBox="0 0 375 374.999991" height="500" preserveAspectRatio="xMidYMid meet" version="1.0"><defs><clipPath id="85caaeecb4"><path d="M 24.121094 24.121094 L 351.121094 24.121094 L 351.121094 351.121094 L 24.121094 351.121094 Z M 24.121094 24.121094 " clip-rule="nonzero"/></clipPath></defs><g clip-path="url(#85caaeecb4)"><path fill="#ffffff" d="M 313.390625 99.582031 C 313.390625 99.582031 95.066406 99.582031 57.425781 99.582031 C 46.382812 99.582031 36.570312 97.367188 36.570312 87.003906 L 313.390625 74.429688 L 313.390625 49.273438 C 313.390625 28.445312 296.488281 24.121094 275.660156 24.121094 L 49.539062 61.851562 C 29.390625 66.328125 24.121094 74.867188 24.121094 87.003906 L 24.121094 313.390625 C 24.121094 334.21875 41.023438 351.121094 61.851562 351.121094 L 313.390625 351.121094 C 334.21875 351.121094 351.121094 334.21875 351.121094 313.390625 L 351.121094 137.3125 C 351.121094 116.484375 334.21875 99.582031 313.390625 99.582031 Z M 300.8125 250.503906 C 286.929688 250.503906 275.660156 239.234375 275.660156 225.351562 C 275.660156 211.464844 286.929688 200.199219 300.8125 200.199219 C 314.699219 200.199219 325.964844 211.464844 325.964844 225.351562 C 325.964844 239.234375 314.699219 250.503906 300.8125 250.503906 Z M 300.8125 250.503906 " fill-opacity="1" fill-rule="nonzero"/></g></svg>